# xmcd CD database file
# Copyright (C) 1993-1998 Ti Kan
#
# Track frame offsets:
#  150
#  15037
#  30627
#  45845
#  62895
#  79787
#  92087
#  106787
#  120157
#  137095
#  153112
#  168045
#
# Disc length: 2423 seconds
#
# Revision: 1
# Processed by: cddbd v1.4b41PL1 Copyright (c) Steve Scherf et al.
# Submitted via: CDWizzard Release:4.35
#
DISCID=7509750c
DTITLE=Roy Clark - My Favorite Hymns
DYEAR=1900
DGENRE=
TTITLE0=The King's Highway
TTITLE1=If I Can Help Somebody
TTITLE2=Heaven's Green Fields
TTITLE3=It Is No Secret
TTITLE4=Me And Jesus
TTITLE5=Leaning On The Everlasting Arms
TTITLE6=In the Sweet By And By
TTITLE7=I Would Crawl All The Way (To The River)
TTITLE8=Why Me?
TTITLE9=Peace In The Valley
TTITLE10=Safely In The Arms Of Jesus
TTITLE11=Pray For Peace
EXTD=
EXTT0=
EXTT1=
EXTT2=
EXTT3=
EXTT4=
EXTT5=
EXTT6=
EXTT7=
EXTT8=
EXTT9=
EXTT10=
EXTT11=
PLAYORDER=
